<svg xmlns="http://www.w3.org/2000/svg" viewBox="0 0 500 240">
  <g fill="#d4a574">
    <polygon points="258.97,135.59 241.03,144.41 181.72,17.09 194.28,10.91"/>
    <polygon points="258.28,134.35 241.72,145.65 160.20,20.95 171.80,13.05"/>
    <polygon points="257.39,133.26 242.61,146.74 141.83,31.82 152.17,22.18"/>
    <polygon points="256.37,132.29 243.63,147.71 124.54,45.40 133.46,34.60"/>
    <polygon points="255.30,131.51 244.70,148.49 111.29,61.96 118.71,50.04"/>
    <polygon points="254.04,130.84 245.96,149.16 102.17,82.59 107.83,69.41"/>
    <polygon points="252.77,130.40 247.23,149.60 99.06,103.73 102.94,90.27"/>
    <polygon points="251.41,130.10 248.59,149.90 102.01,123.06 103.99,114.94"/>
    <polygon points="250,130 250,150 110,147 110,133"/>
    <polygon points="248.62,130.13 251.38,149.87 121.97,164.94 120.03,151.06"/>
    <polygon points="247.21,130.48 252.79,149.52 135.95,180.67 132.05,167.33"/>
    <polygon points="241.03,135.59 258.97,144.41 318.28,17.09 305.72,10.91"/>
    <polygon points="241.72,134.35 258.28,145.65 339.80,20.95 328.20,13.05"/>
    <polygon points="242.61,133.26 257.39,146.74 358.17,31.82 347.83,22.18"/>
    <polygon points="243.63,132.29 256.37,147.71 375.46,45.40 366.54,34.60"/>
    <polygon points="244.70,131.51 255.30,148.49 388.71,61.96 381.29,50.04"/>
    <polygon points="245.96,130.84 254.04,149.16 397.83,82.59 392.17,69.41"/>
    <polygon points="247.23,130.40 252.77,149.60 400.94,103.73 397.06,90.27"/>
    <polygon points="248.59,130.10 251.41,149.90 397.99,123.06 396.01,114.94"/>
    <polygon points="250,130 250,150 390,147 390,133"/>
    <polygon points="251.38,130.13 248.62,149.87 378.03,164.94 379.97,151.06"/>
    <polygon points="252.79,130.48 247.21,149.52 364.05,180.67 367.95,167.33"/>
    <polygon points="250,58 267,92 259,118 241,118 233,92"/>
    <polygon points="241,118 259,118 263,140 237,140"/>
    <path fill-rule="evenodd" d="M237,140 L263,140 L259,205 L241,205 Z M238,153 L250,143 L262,153 L258,153 L250,147 L242,153 Z M238,166 L250,156 L262,166 L258,166 L250,160 L242,166 Z M239,179 L250,169 L261,179 L257,179 L250,173 L243,179 Z M239,192 L250,182 L261,192 L257,192 L250,186 L243,192 Z"/>
    <polygon points="241,205 259,205 255,220 245,220"/>
    <rect x="239" y="220" width="4" height="14" rx="2"/>
    <rect x="244" y="220" width="4" height="17" rx="2"/>
    <rect x="249" y="220" width="4" height="12" rx="2"/>
    <rect x="255" y="220" width="4" height="12" rx="2"/>
    <rect x="260" y="220" width="4" height="17" rx="2"/>
    <rect x="265" y="220" width="4" height="14" rx="2"/>
  </g>
</svg>
